<svg xmlns="http://www.w3.org/2000/svg" width="434" height="126.723" viewBox="0 0 434 126.723"><path d="M72.759,5.372H20.8c-13.826,0-20.8,6.711-20.8,20V96.522c0,1.743.936,2.815,2.952,2.815H18.658c1.879,0,3.089-1.073,3.089-2.815v-2.7c0-6.59,2.777-10.181,9.679-10.873H72.759c15.165,0,22.013-6.574,22.013-20.94V26.313C94.772,11.946,87.924,5.372,72.759,5.372Zm.289,50.593c0,7.792-1.765,9.4-11.033,9.4H40c-9.26,0-15.173,3.089-18.262,9.131V30.612c0-6.042,1.476-7.655,8.857-7.655H62.015c9.268,0,11.033,1.613,11.033,9.4Z" fill="#8257e5"/><path d="M144.574,44.7c-11.946,0-17.052,6.042-17.052,16.246V96.788c0,1.613-.807,2.549-2.686,2.549H110.607c-1.88,0-2.816-.936-2.816-2.549V31.281c0-1.613.936-2.557,2.816-2.557h11.946a2.374,2.374,0,0,1,2.686,2.557V41.85c2.283-8.72,8.865-13.156,20.545-13.156h4.832a2.372,2.372,0,0,1,2.678,2.557v10.9c0,1.743-.936,2.549-2.678,2.549Z" fill="#8257e5"/><path d="M237.193,80.14c0,13.293-5.9,19.2-20,19.2h-34.9c-13.963,0-20.005-5.9-20.005-19.2v-32.2c0-13.286,6.042-19.2,20.005-19.2h34.9c14.092,0,20,5.912,20,19.2ZM217.462,53.028c0-6.985-1.339-8.325-9.663-8.325h-15.98c-8.453,0-9.8,1.339-9.8,8.325V75.042c0,6.978,1.347,8.324,9.8,8.324H207.8c8.324,0,9.663-1.347,9.663-8.324Z" fill="#8257e5"/><path d="M257.06,44.7h-6.719c-1.75,0-2.686-.806-2.686-2.549V31.281a2.374,2.374,0,0,1,2.686-2.557h6.712V20c.007-13.293,6.985-20,20.811-20h16.512c1.879,0,2.686.944,2.686,2.549V13.423c0,1.75-.807,2.549-2.686,2.549h-8.721c-7.388,0-8.864,1.613-8.864,7.655v5.1h17.585c1.879,0,2.686.944,2.686,2.557V42.155c0,1.743-.807,2.549-2.686,2.549H276.791V96.788c0,1.613-.936,2.549-2.816,2.549H259.746c-1.879,0-2.686-.936-2.686-2.549Z" fill="#8257e5"/><path d="M311.831,44.7h-6.7c-1.742,0-2.678-.806-2.678-2.549V31.281a2.372,2.372,0,0,1,2.678-2.557h6.719V20c-.015-13.293,6.978-20,20.788-20h16.512c1.88,0,2.686.944,2.686,2.549V13.423c0,1.75-.806,2.549-2.686,2.549h-8.727c-7.381,0-8.857,1.613-8.857,7.655v5.1h17.584c1.88,0,2.686.944,2.686,2.557V42.155c0,1.743-.806,2.549-2.686,2.549H331.562V96.788c0,1.613-.944,2.549-2.823,2.549h-14.23c-1.879,0-2.678-.936-2.678-2.549Z" fill="#8257e5"/><path d="M411.831,126.723H382.566c-13.149,0-18.787-5.1-18.787-17.722v-1.339a2.413,2.413,0,0,1,2.678-2.656h13.7c1.879,0,2.815.944,2.815,2.686v.67c0,2.686,1.484,3.759,4.436,3.759H404.32c8.051,0,10.067-2.009,10.067-8.857V82.088c-3.089,6.042-8.994,9.131-18.262,9.131h-13.7c-13.963,0-20.142-5.9-20.142-19.2V31.281a2.443,2.443,0,0,1,2.686-2.557H379.34a2.378,2.378,0,0,1,2.686,2.557V66.961c0,6.978,1.476,8.324,9.8,8.324h10.2c8.857,0,12.35-3.63,12.35-11.01V31.281a2.374,2.374,0,0,1,2.686-2.557h14.373a2.338,2.338,0,0,1,2.55,2.557v74.1C433.981,119.464,426.463,126.723,411.831,126.723Z" fill="#8257e5"/></svg>